<mxfile host="65bd71144e">
    <diagram name="ページ1" id="MKIq4OLjzzczqb5mpi5u">
        <mxGraphModel dx="1599" dy="1121" grid="1" gridSize="10" guides="1" tooltips="1" connect="1" arrows="1" fold="1" page="1" pageScale="1" pageWidth="827" pageHeight="1169" math="0" shadow="0">
            <root>
                <mxCell id="0"/>
                <mxCell id="1" parent="0"/>
                <mxCell id="8Ygf1gGhAiTiv7Ecuo-q-1" value="" style="rounded=0;whiteSpace=wrap;html=1;fillColor=#FFB570;" parent="1" vertex="1">
                    <mxGeometry x="320" y="400" width="40" height="40" as="geometry"/>
                </mxCell>
                <mxCell id="8Ygf1gGhAiTiv7Ecuo-q-2" value="" style="rounded=0;whiteSpace=wrap;html=1;fillColor=#FFB570;" parent="1" vertex="1">
                    <mxGeometry x="360" y="400" width="40" height="40" as="geometry"/>
                </mxCell>
                <mxCell id="8Ygf1gGhAiTiv7Ecuo-q-3" value="" style="rounded=0;whiteSpace=wrap;html=1;fillColor=#FFB570;" parent="1" vertex="1">
                    <mxGeometry x="400" y="400" width="40" height="40" as="geometry"/>
                </mxCell>
                <mxCell id="8Ygf1gGhAiTiv7Ecuo-q-4" value="" style="rounded=0;whiteSpace=wrap;html=1;fillColor=#FFB570;" parent="1" vertex="1">
                    <mxGeometry x="440" y="400" width="40" height="40" as="geometry"/>
                </mxCell>
                <mxCell id="8Ygf1gGhAiTiv7Ecuo-q-5" value="" style="rounded=0;whiteSpace=wrap;html=1;" parent="1" vertex="1">
                    <mxGeometry x="480" y="400" width="40" height="40" as="geometry"/>
                </mxCell>
                <mxCell id="8Ygf1gGhAiTiv7Ecuo-q-7" value="" style="rounded=0;whiteSpace=wrap;html=1;fillColor=#FFB570;" parent="1" vertex="1">
                    <mxGeometry x="320" y="360" width="40" height="40" as="geometry"/>
                </mxCell>
                <mxCell id="8Ygf1gGhAiTiv7Ecuo-q-8" value="" style="rounded=0;whiteSpace=wrap;html=1;fillColor=#FFB570;" parent="1" vertex="1">
                    <mxGeometry x="360" y="360" width="40" height="40" as="geometry"/>
                </mxCell>
                <mxCell id="8Ygf1gGhAiTiv7Ecuo-q-9" value="" style="rounded=0;whiteSpace=wrap;html=1;fillColor=#FFB570;" parent="1" vertex="1">
                    <mxGeometry x="400" y="360" width="40" height="40" as="geometry"/>
                </mxCell>
                <mxCell id="8Ygf1gGhAiTiv7Ecuo-q-10" value="" style="rounded=0;whiteSpace=wrap;html=1;fillColor=#FFB570;" parent="1" vertex="1">
                    <mxGeometry x="440" y="360" width="40" height="40" as="geometry"/>
                </mxCell>
                <mxCell id="8Ygf1gGhAiTiv7Ecuo-q-11" value="" style="rounded=0;whiteSpace=wrap;html=1;" parent="1" vertex="1">
                    <mxGeometry x="480" y="360" width="40" height="40" as="geometry"/>
                </mxCell>
                <mxCell id="8Ygf1gGhAiTiv7Ecuo-q-12" value="" style="rounded=0;whiteSpace=wrap;html=1;fillColor=#FFB570;" parent="1" vertex="1">
                    <mxGeometry x="320" y="320" width="40" height="40" as="geometry"/>
                </mxCell>
                <mxCell id="8Ygf1gGhAiTiv7Ecuo-q-13" value="" style="rounded=0;whiteSpace=wrap;html=1;fillColor=#FFB570;" parent="1" vertex="1">
                    <mxGeometry x="360" y="320" width="40" height="40" as="geometry"/>
                </mxCell>
                <mxCell id="8Ygf1gGhAiTiv7Ecuo-q-14" value="" style="rounded=0;whiteSpace=wrap;html=1;fillColor=#FFB570;" parent="1" vertex="1">
                    <mxGeometry x="400" y="320" width="40" height="40" as="geometry"/>
                </mxCell>
                <mxCell id="8Ygf1gGhAiTiv7Ecuo-q-15" value="" style="rounded=0;whiteSpace=wrap;html=1;fillColor=#FFB570;" parent="1" vertex="1">
                    <mxGeometry x="440" y="320" width="40" height="40" as="geometry"/>
                </mxCell>
                <mxCell id="8Ygf1gGhAiTiv7Ecuo-q-16" value="" style="rounded=0;whiteSpace=wrap;html=1;" parent="1" vertex="1">
                    <mxGeometry x="480" y="320" width="40" height="40" as="geometry"/>
                </mxCell>
                <mxCell id="8Ygf1gGhAiTiv7Ecuo-q-17" value="" style="rounded=0;whiteSpace=wrap;html=1;fillStyle=solid;fillColor=#FFB570;gradientColor=none;" parent="1" vertex="1">
                    <mxGeometry x="320" y="280" width="40" height="40" as="geometry"/>
                </mxCell>
                <mxCell id="8Ygf1gGhAiTiv7Ecuo-q-18" value="" style="rounded=0;whiteSpace=wrap;html=1;fillColor=#FFB570;" parent="1" vertex="1">
                    <mxGeometry x="360" y="280" width="40" height="40" as="geometry"/>
                </mxCell>
                <mxCell id="8Ygf1gGhAiTiv7Ecuo-q-19" value="" style="rounded=0;whiteSpace=wrap;html=1;fillColor=#FFB570;" parent="1" vertex="1">
                    <mxGeometry x="400" y="280" width="40" height="40" as="geometry"/>
                </mxCell>
                <mxCell id="8Ygf1gGhAiTiv7Ecuo-q-20" value="" style="rounded=0;whiteSpace=wrap;html=1;" parent="1" vertex="1">
                    <mxGeometry x="440" y="280" width="40" height="40" as="geometry"/>
                </mxCell>
                <mxCell id="8Ygf1gGhAiTiv7Ecuo-q-21" value="" style="rounded=0;whiteSpace=wrap;html=1;fillColor=#97D077;" parent="1" vertex="1">
                    <mxGeometry x="480" y="280" width="40" height="40" as="geometry"/>
                </mxCell>
                <mxCell id="8Ygf1gGhAiTiv7Ecuo-q-22" value="" style="rounded=0;whiteSpace=wrap;html=1;" parent="1" vertex="1">
                    <mxGeometry x="320" y="240" width="40" height="40" as="geometry"/>
                </mxCell>
                <mxCell id="8Ygf1gGhAiTiv7Ecuo-q-23" value="" style="rounded=0;whiteSpace=wrap;html=1;" parent="1" vertex="1">
                    <mxGeometry x="360" y="240" width="40" height="40" as="geometry"/>
                </mxCell>
                <mxCell id="8Ygf1gGhAiTiv7Ecuo-q-24" value="" style="rounded=0;whiteSpace=wrap;html=1;" parent="1" vertex="1">
                    <mxGeometry x="400" y="240" width="40" height="40" as="geometry"/>
                </mxCell>
                <mxCell id="8Ygf1gGhAiTiv7Ecuo-q-25" value="" style="rounded=0;whiteSpace=wrap;html=1;fillColor=#97D077;" parent="1" vertex="1">
                    <mxGeometry x="440" y="240" width="40" height="40" as="geometry"/>
                </mxCell>
                <mxCell id="8Ygf1gGhAiTiv7Ecuo-q-26" value="" style="rounded=0;whiteSpace=wrap;html=1;fillColor=#97D077;" parent="1" vertex="1">
                    <mxGeometry x="480" y="240" width="40" height="40" as="geometry"/>
                </mxCell>
                <mxCell id="8Ygf1gGhAiTiv7Ecuo-q-47" value="" style="endArrow=none;html=1;rounded=0;entryX=0;entryY=0;entryDx=0;entryDy=0;curved=1;" parent="1" target="8Ygf1gGhAiTiv7Ecuo-q-22" edge="1">
                    <mxGeometry width="50" height="50" relative="1" as="geometry">
                        <mxPoint x="520" y="440" as="sourcePoint"/>
                        <mxPoint x="570" y="390" as="targetPoint"/>
                        <Array as="points">
                            <mxPoint x="520" y="390"/>
                            <mxPoint x="467" y="293"/>
                            <mxPoint x="370" y="240"/>
                        </Array>
                    </mxGeometry>
                </mxCell>
                <mxCell id="8Ygf1gGhAiTiv7Ecuo-q-48" value="&lt;font face=&quot;Times New Roman&quot;&gt;O&lt;/font&gt;" style="text;html=1;align=center;verticalAlign=middle;resizable=0;points=[];autosize=1;strokeColor=none;fillColor=none;fontSize=20;" parent="1" vertex="1">
                    <mxGeometry x="300" y="430" width="40" height="40" as="geometry"/>
                </mxCell>
                <mxCell id="8Ygf1gGhAiTiv7Ecuo-q-49" value="&lt;font face=&quot;Times New Roman&quot;&gt;A&lt;/font&gt;" style="text;html=1;align=center;verticalAlign=middle;resizable=0;points=[];autosize=1;strokeColor=none;fillColor=none;fontSize=20;" parent="1" vertex="1">
                    <mxGeometry x="500" y="430" width="40" height="40" as="geometry"/>
                </mxCell>
                <mxCell id="8Ygf1gGhAiTiv7Ecuo-q-50" value="&lt;font face=&quot;Times New Roman&quot;&gt;B&lt;/font&gt;" style="text;html=1;align=center;verticalAlign=middle;resizable=0;points=[];autosize=1;strokeColor=none;fillColor=none;fontSize=20;" parent="1" vertex="1">
                    <mxGeometry x="500" y="210" width="40" height="40" as="geometry"/>
                </mxCell>
                <mxCell id="8Ygf1gGhAiTiv7Ecuo-q-51" value="&lt;font face=&quot;Times New Roman&quot;&gt;C&lt;/font&gt;" style="text;html=1;align=center;verticalAlign=middle;resizable=0;points=[];autosize=1;strokeColor=none;fillColor=none;fontSize=20;" parent="1" vertex="1">
                    <mxGeometry x="300" y="210" width="40" height="40" as="geometry"/>
                </mxCell>
            </root>
        </mxGraphModel>
    </diagram>
</mxfile>